Coordinates
version=1
nRows=16
nColumns=40
inDegrees=yes

Units are S.I. units (second, meters, Newtons, ...)
Angles are in degrees.

endheader
time	pelvis_tilt	pelvis_list	pelvis_rotation	pelvis_tx	pelvis_ty	pelvis_tz	hip_flexion_r	hip_adduction_r	hip_rotation_r	knee_angle_r	knee_angle_r_beta	ankle_angle_r	subtalar_angle_r	mtp_angle_r	hip_flexion_l	hip_adduction_l	hip_rotation_l	knee_angle_l	knee_angle_l_beta	ankle_angle_l	subtalar_angle_l	mtp_angle_l	lumbar_extension	lumbar_bending	lumbar_rotation	arm_flex_r	arm_add_r	arm_rot_r	elbow_flex_r	pro_sup_r	wrist_flex_r	wrist_dev_r	arm_flex_l	arm_add_l	arm_rot_l	elbow_flex_l	pro_sup_l	wrist_flex_l	wrist_dev_l
     11.91250000	     -6.46130870	     -4.58341894	     11.90379283	      0.94520447	      0.92074756	      0.47194480	      4.97805406	      2.54722723	    -14.70201522	     17.74539499	     17.74539499	     17.75302831	     -5.67428965	     -1.14475939	     28.08020714	     -3.51510289	      5.63818905	     22.47483301	     22.47483301	      5.57806984	     -8.06102532	     -0.33562272	     -7.93991403	      2.52974119	      4.90525172	     65.58037295	    -17.91838626	      0.61327966	     75.08502953	     44.69981463	      0.00000000	      0.00000000	    -13.35441600	    -12.87909876	     28.21408074	     33.48404399	     42.63919128	      0.00000000	      0.00000000
     11.93485714	     -6.49628909	     -4.56123322	     11.38234590	      0.94633539	      0.92150586	      0.46735264	      4.63652986	      2.21640942	    -14.36566536	     17.82033569	     17.82033569	     17.54245177	     -5.41892861	     -1.10653141	     27.67171661	     -3.41454699	      5.28201329	     22.68075762	     22.68075762	      6.09451940	     -8.40422202	     -0.48069686	     -7.83082658	      2.64421611	      4.84854275	     64.74524114	    -17.68890814	      0.71751460	     74.80002097	     44.70473720	      0.00000000	      0.00000000	    -12.62974139	    -13.08280697	     28.04807018	     33.65966098	     42.67942375	      0.00000000	      0.00000000
     11.95721429	     -6.48792522	     -4.47546508	     10.79558354	      0.94763750	      0.92244667	      0.46267109	      4.27147719	      1.74483369	    -14.25290505	     17.98552838	     17.98552838	     17.37390492	     -4.67339391	     -1.18477143	     27.09335912	     -3.27923865	      4.82969905	     22.73420215	     22.73420215	      6.65539101	     -8.63669794	     -0.40159827	     -7.71816805	      2.67756649	      5.10108905	     63.58518652	    -17.78226762	      0.26174036	     74.08465926	     44.75313533	      0.00000000	      0.00000000	    -11.78844379	    -13.23645381	     27.36000834	     33.94789440	     42.83455339	      0.00000000	      0.00000000
     11.97957143	     -6.49773795	     -4.41312111	     10.18671218	      0.94900756	      0.92335737	      0.45798952	      4.04050832	      1.24070708	    -14.19582393	     18.35478333	     18.35478333	     17.22594479	     -3.85576870	     -1.31498891	     26.55101557	     -3.14399894	      4.42251022	     22.82330785	     22.82330785	      7.23994249	     -8.94765449	     -0.11529056	     -7.58687175	      2.71608466	      5.04322579	     62.12282997	    -17.33696238	     -0.66187275	     73.49315003	     44.83209326	      0.00000000	      0.00000000	    -11.03384126	    -13.10132892	     25.54516878	     33.96793189	     43.22080087	      0.00000000	      0.00000000
     12.00192857	     -6.39071865	     -4.46778177	      9.52772641	      0.95050860	      0.92435308	      0.45342943	      3.78325556	      0.92831233	    -13.77148799	     18.80885258	     18.80885258	     16.97324773	     -3.59274236	     -1.36093653	     25.88402829	     -3.17139591	      3.99794543	     22.86654803	     22.86654803	      7.69273971	     -9.27263663	     -0.20711170	     -7.54661952	      2.99256111	      4.89425240	     60.52254223	    -16.99720383	     -0.47415655	     72.96513967	     44.83800972	      0.00000000	      0.00000000	    -10.18546808	    -13.16389543	     25.33626558	     34.19495375	     43.26666937	      0.00000000	      0.00000000
     12.02428571	     -6.37980971	     -4.27105276	      8.77377470	      0.95205049	      0.92530257	      0.44876128	      3.88879192	      0.18294209	    -13.44564839	     19.84398465	     19.84398465	     16.80368390	     -3.14645693	     -1.71514586	     25.12219002	     -2.93644439	      3.38217907	     22.66017845	     22.66017845	      8.05605006	     -9.53953940	     -0.17899651	     -7.40452648	      2.84904833	      5.01626577	     58.44651551	    -17.16265349	     -0.74738431	     71.78874365	     44.88350508	      0.00000000	      0.00000000	     -9.20976575	    -13.21597532	     24.69307931	     34.34599166	     43.38640922	      0.00000000	      0.00000000
     12.04664286	     -6.29956673	     -4.20756755	      7.99734937	      0.95355433	      0.92612369	      0.44408501	      4.17647978	     -0.50741802	    -13.22989993	     21.28045412	     21.28045412	     16.55418868	     -2.57294743	     -2.47217782	     24.39907167	     -2.79741475	      2.95635940	     22.59990651	     22.59990651	      8.42377475	    -10.09781006	     -0.06136269	     -7.30259930	      2.97440221	      5.20030995	     56.28372307	    -17.03940233	     -1.34032590	     70.39189098	     44.95012584	      0.00000000	      0.00000000	     -7.92257039	    -13.00702233	     23.61690982	     34.28632857	     43.58224398	      0.00000000	      0.00000000
     12.06900000	     -6.15672166	     -4.12094683	      7.19564238	      0.95513808	      0.92690585	      0.43935601	      4.61959211	     -1.25096833	    -12.80823023	     23.07739481	     23.07739481	     16.14216661	     -2.35113675	     -3.50967785	     23.63153009	     -2.62286644	      2.52673707	     22.59158304	     22.59158304	      8.79181682	    -10.69527135	      0.08316951	     -7.27565105	      3.08641066	      5.19940389	     53.80005222	    -16.76180057	     -1.80574338	     68.83349257	     45.01506178	      0.00000000	      0.00000000	     -6.63684792	    -12.75772692	     22.57169403	     34.10074957	     43.76990309	      0.00000000	      0.00000000
     12.09135714	     -5.92192416	     -4.02477310	      6.39215404	      0.95678258	      0.92763325	      0.43460643	      5.07354511	     -2.01618658	    -12.31914032	     24.91066524	     24.91066524	     14.44636765	     -2.75173116	     -7.89540860	     22.83629015	     -2.37324213	      2.31460777	     22.71895584	     22.71895584	      9.31511704	    -11.62867999	      0.82471146	     -7.30473871	      3.18872258	      4.90493366	     51.42954696	    -15.62709569	     -3.53698909	     65.83557757	     45.19442596	      0.00000000	      0.00000000	     -4.95312549	    -11.59581915	     18.36999474	     32.08881835	     44.48730932	      0.00000000	      0.00000000
     12.11371429	     -5.63858637	     -3.91911198	      5.53535289	      0.95834125	      0.92801229	      0.42989588	      6.06252506	     -2.87954172	    -11.55614169	     27.88300191	     27.88300191	     13.85495222	     -3.08577170	     -8.98629494	     22.09382785	     -2.19175880	      1.75651353	     23.00756186	     23.00756186	      9.76327299	    -12.14811343	      0.78181978	     -7.46893379	      3.33073565	      4.81373287	     48.45316911	    -15.52406765	     -3.32702230	     64.22835349	     45.23019019	      0.00000000	      0.00000000	     -3.59565186	    -11.51140216	     17.89929697	     32.50857179	     44.58225032	      0.00000000	      0.00000000
     12.13607143	     -5.34547322	     -3.85744560	      4.69374549	      0.95976044	      0.92808365	      0.42510416	      7.19471202	     -3.66372976	    -10.60889268	     30.85873655	     30.85873655	     11.50436164	     -4.59345380	    -14.30888864	     21.45733342	     -1.91331914	      1.65142995	     23.48334573	     23.48334573	     10.39068836	    -13.33972972	      1.73799671	     -7.54345062	      3.57104607	      4.81637296	     45.87470122	    -15.14257099	     -3.93953991	     60.12758835	     45.39241491	      0.00000000	      0.00000000	     -1.53486076	    -10.83931337	     16.11947003	     31.37035004	     44.91041696	      0.00000000	      0.00000000
     12.15842857	     -4.99931056	     -3.77305071	      3.85969316	      0.96111561	      0.92774818	      0.42035940	      8.65722339	     -4.47767416	     -9.49464462	     34.48860818	     34.48860818	      9.25767204	     -6.36109047	    -18.53078896	     20.91887043	     -1.67555998	      1.23862395	     24.21762930	     24.21762930	     11.18573252	    -13.99588690	      2.35460193	     -7.73524086	      3.79898765	      4.58852343	     42.93253672	    -14.61237467	     -4.28899248	     56.84713282	     45.50910346	      0.00000000	      0.00000000	      0.29129371	    -10.48062295	     14.92118951	     31.01871902	     45.13783995	      0.00000000	      0.00000000
     12.18078571	     -4.63475679	     -3.69551272	      3.03917748	      0.96232732	      0.92693503	      0.41565909	     10.43602031	     -5.26538272	     -8.28592380	     38.65659986	     38.65659986	      7.13609515	     -8.04665028	    -21.34407456	     20.49840999	     -1.39836044	      0.92763610	     25.17061859	     25.17061859	     12.03314840	    -14.86062780	      3.03891734	     -7.97043083	      4.07674001	      4.39058401	     39.94447503	    -14.19457482	     -4.67764557	     53.28481749	     45.63385047	      0.00000000	      0.00000000	      2.27677341	    -10.28819861	     14.43224808	     30.73761621	     45.25333398	      0.00000000	      0.00000000
     12.20314286	     -4.21901581	     -3.63288851	      2.24891805	      0.96343105	      0.92569591	      0.41106985	     12.37096716	     -5.93955292	     -6.95629135	     43.10337183	     43.10337183	      5.04449036	     -9.68629537	    -22.91869421	     20.17446273	     -1.13107239	      0.62685130	     26.37305434	     26.37305434	     13.05016610	    -15.65078531	      3.86486233	     -8.26970726	      4.37799890	      4.22074121	     36.88390854	    -13.81855953	     -5.23919324	     49.37480787	     45.77525585	      0.00000000	      0.00000000	      4.41414337	    -10.19612024	     14.41672512	     30.63713723	     45.29661870	      0.00000000	      0.00000000
     12.22550000	     -3.73853713	     -3.59720025	      1.49688708	      0.96447015	      0.92410674	      0.40669336	     14.35253348	     -6.44108493	     -5.55696854	     47.64387750	     47.64387750	      3.03529751	    -11.20029142	    -23.13871862	     19.86864335	     -0.88738167	      0.35035654	     27.71004398	     27.71004398	     14.10315896	    -16.38025540	      4.45942863	     -8.65931586	      4.71108216	      4.19038639	     33.51136992	    -13.68601101	     -5.69030982	     45.74814286	     45.90333459	      0.00000000	      0.00000000	      6.61320590	    -10.26341265	     14.58059565	     30.96250117	     45.30999525	      0.00000000	      0.00000000
     12.24785714	     -3.29592637	     -3.58876053	      0.77616673	      0.96533190	      0.92213240	      0.40250167	     16.43484313	     -6.82718908	     -4.24587927	     52.13346533	     52.13346533	      1.12343403	    -12.41190503	    -22.30002904	     19.72899270	     -0.67255142	      0.04475315	     29.25480353	     29.25480353	     15.53769110	    -16.93037946	      5.95290423	     -9.00910858	      5.08881396	      3.95174748	     30.61701319	    -13.25183851	     -6.86491529	     41.11199927	     46.10234645	      0.00000000	      0.00000000	      8.86611034	    -10.46756188	     15.28224644	     31.05733607	     45.25088117	      0.00000000	      0.00000000
